<svg preserveAspectRatio="none" width="100%" height="100%" overflow="visible" style="display: block;" viewBox="0 0 101 98" fill="none" xmlns="http://www.w3.org/2000/svg">
<g id="Group 38">
<path id="Vector 5" d="M20.7682 15.2517L23.5 41H77.8808L80.1523 18.4967L75.6093 13.6291L77.8808 10.3841C72.9484 5.45166 64.2517 5.84106 60.6821 5.51656L65.2252 2.59603C55.8795 1.03841 47.2693 3.24503 44.1325 4.54305V0L33.0994 6.16556L29.8543 2.59603L25.9603 11.0331L22.0663 8.43709L20.7682 15.2517Z" fill="var(--fill-0, #1F2531)"/>
<circle id="Ellipse 2" cx="50.6224" cy="42.1854" r="25.9603" fill="var(--fill-0, #F9DE8E)"/>
<path id="Vector 3" d="M27.2583 28.8807C38.9405 23.3642 70.4173 26.6092 72.0398 26.9337L77.8809 23.6887L53.5431 12.3311L27.2583 15.9006V28.8807Z" fill="var(--fill-0, #1F2531)"/>
<path id="Vector 6" d="M55.1655 38.5934L55.4903 35.9993C60.9469 34.9616 66.5333 34.7022 69.4565 35.5669C69.9978 36.864 71.86 39.9769 69.7813 38.5934C67.7026 37.2098 59.1713 38.0169 55.1655 38.5934Z" fill="var(--fill-0, #1F2531)"/>
<path id="Vector 7" d="M46.0796 38.5934L45.7548 35.9993C40.2982 34.9616 34.7118 34.7022 31.7886 35.5669C31.2473 36.864 29.3851 39.9769 31.4638 38.5934C33.5425 37.2098 42.0738 38.0169 46.0796 38.5934Z" fill="var(--fill-0, #1F2531)"/>
<path id="Rectangle 20" d="M0 44H101L92.7213 91H8.27869L0 44Z" fill="var(--fill-0, #1F2531)"/>
<path id="Rectangle 21" d="M7.78809 92.808H93.457V98H7.78809V92.808Z" fill="var(--fill-0, #1F2531)"/>
<path id="Ellipse 4" d="M55.8148 67.1921C55.8148 70.0595 53.5432 71.7351 50.6227 71.7351C47.3777 71.7351 45.4307 69.7881 45.4307 67.1921C45.4307 64.3246 47.7552 62 50.6227 62C53.4902 62 55.8148 64.3246 55.8148 67.1921Z" fill="var(--fill-0, white)"/>
</g>
</svg>
