<svg preserveAspectRatio="none" width="100%" height="100%" overflow="visible" style="display: block;" viewBox="0 0 200 158" fill="none" xmlns="http://www.w3.org/2000/svg">
<path id="Vector 14" d="M0 52.9486V100.057V158H200V103.561H194.919V81.7589L192.61 79.8122H185.219V64.2391H181.524V59.9565H179.215L177.829 54.8952H175.52L174.596 59.9565H172.286V64.2391H168.591V84.4842H167.206V112.126H163.972V73.583H147.344V90.3241H140.878V49.4446C140.878 45.0842 137.49 43.9941 135.797 43.9941H125.635V60.7352H122.864V88.7668H118.707V65.4071C118.707 52.9486 120.862 41.7879 121.94 37.7648H126.559V34.2609L133.487 31.5356L126.559 29.9782V27.6423L116.859 24.917C117.013 24.0086 117.229 21.9581 116.859 21.0237C116.49 20.0893 114.242 19.5962 113.164 19.4664L111.778 0L109.931 19.4664C108.083 19.4664 106.697 20.5046 106.236 21.0237V24.917L98.3834 27.6423V29.9782L91.9169 31.5356L98.3834 34.2609V37.7648H103.464C105.681 40.2565 106.851 56.4525 107.159 64.2391H91.9169V77.0869H85.4503V90.3241H82.679V93.828H80.3695V91.1027H70.2079V75.5296H66.0508V69.6897C55.7044 69.6897 53.4257 72.2852 53.5797 73.583V78.2549H49.4226L47.1132 81.7589H39.7229V78.2549H31.4088V80.9802H24.9423V54.8952L23.0947 52.9486H18.0139V50.2233H3.69515V52.9486H0Z" fill="var(--fill-0, white)"/>
</svg>
