<svg preserveAspectRatio="none" width="100%" height="100%" overflow="visible" style="display: block;" viewBox="0 0 116.028 128.372" fill="none" xmlns="http://www.w3.org/2000/svg">
<g id="Blue">
<path id="path133" d="M37.2158 47.16C36.9134 46.7564 36.5141 46.4391 36.0565 46.2389C35.5988 46.0388 35.0982 45.9624 34.6032 46.0173C34.1081 46.0722 33.6353 46.2564 33.2305 46.5522C32.8256 46.848 32.5024 47.2453 32.292 47.7058L7.3426 98.5965C7.11531 99.0604 7.008 99.5757 7.03085 100.094C7.0537 100.612 7.20595 101.115 7.47315 101.556C7.74036 101.997 8.11364 102.362 8.55756 102.614C9.00148 102.867 9.5013 102.999 10.0096 102.999H44.7504C45.3068 103.012 45.855 102.86 46.3284 102.562C46.8019 102.263 47.1802 101.831 47.4174 101.317C54.9114 85.519 50.3698 61.4977 37.2158 47.16Z" fill="var(--fill-0, white)"/>
<path id="path135" d="M55.8354 1.62063C49.5135 11.3079 45.8294 22.4656 45.1445 33.9989C44.4597 45.5321 46.7977 57.0445 51.929 67.4063L68.9613 101.33C69.2131 101.832 69.6002 102.254 70.0792 102.549C70.5582 102.844 71.1103 103 71.6734 103H106.996C107.513 103 108.021 102.868 108.472 102.618C108.924 102.367 109.303 102.006 109.575 101.568C109.847 101.13 110.002 100.63 110.025 100.116C110.048 99.6016 109.939 99.09 109.708 98.6296C109.708 98.6296 62.1874 3.96933 60.9931 1.60168C60.757 1.11974 60.3892 0.713843 59.9321 0.43055C59.4749 0.147256 58.9467 -0.00195933 58.4083 1.94276e-05C57.8698 0.00199819 57.3428 0.155091 56.8877 0.441737C56.4327 0.728383 56.0679 1.13697 55.8354 1.62063Z" fill="var(--fill-0, white)"/>
<path id="path137" d="M52.9356 118.017C52.9356 120.101 53.9022 121.755 57.6832 122.486C59.939 122.959 60.4115 123.323 60.4115 124.075C60.4115 124.806 59.938 125.278 58.3491 125.278C56.4288 125.244 54.5468 124.735 52.8711 123.796V127.19C54.0098 127.749 55.5134 128.372 58.3062 128.372C62.259 128.372 63.8273 126.609 63.8273 123.989M63.8273 123.989C63.8273 121.519 62.5168 120.358 58.8219 119.564C56.781 119.113 56.2869 118.662 56.2869 118.017C56.2869 117.202 57.0173 116.857 58.3707 116.857C60.0035 116.857 61.6147 117.351 63.1399 118.039V114.795C61.6774 114.129 60.0846 113.799 58.478 113.828C54.826 113.828 52.9356 115.418 52.9356 118.017" fill="var(--fill-0, white)"/>
<path id="polygon139" d="M106.726 128.157V117.394L107.993 120.251L112.247 128.157H116.028V114.043H113.02V123.151L111.882 120.509L108.466 114.043H103.718V128.157H106.726Z" fill="var(--fill-0, white)"/>
<path id="rect141" d="M81.3026 114.043H84.5894V128.157H81.3026V114.043Z" fill="var(--fill-0, white)"/>
<path id="path143" d="M77.51 123.989C77.51 121.519 76.1995 120.358 72.5045 119.564C70.4637 119.113 69.9696 118.662 69.9696 118.017C69.9696 117.202 70.6999 116.857 72.0533 116.857C73.6861 116.857 75.2973 117.351 76.8225 118.039V114.795C75.36 114.129 73.7672 113.799 72.1607 113.828C68.5086 113.828 66.6182 115.418 66.6182 118.017C66.6182 120.101 67.5849 121.755 71.3658 122.486C73.6216 122.959 74.0942 123.323 74.0942 124.075C74.0942 124.806 73.6206 125.278 72.0317 125.278C70.1114 125.244 68.2295 124.735 66.5538 123.796V127.19C67.6925 127.749 69.1961 128.372 71.9889 128.372C75.9417 128.372 77.51 126.609 77.51 123.989Z" fill="var(--fill-0, white)"/>
<path id="polygon145" d="M34.158 128.157L35.2217 125.106H30.7104V114.043H27.4022V128.157H34.158Z" fill="var(--fill-0, white)"/>
<path id="polygon147" d="M17.7068 117.093V128.157H21.015V117.093H24.9249V114.043H14.0547V117.093H17.7068Z" fill="var(--fill-0, white)"/>
<path id="path149" d="M9.25757 114.043H4.92198L0.000198364 128.157H3.75882L4.45656 125.78C6.17497 126.284 8.00221 126.284 9.72062 125.78L10.4184 128.157H14.1778L9.25757 114.043ZM7.08964 123.235C6.47738 123.235 5.86828 123.147 5.28084 122.974L7.08964 116.815L8.89844 122.976C8.3109 123.148 7.7018 123.235 7.08964 123.235Z" fill="var(--fill-0, white)"/>
<path id="path151" d="M45.8048 114.043H41.4695L36.5477 128.157H40.3071L41.0049 125.78C42.7233 126.284 44.5505 126.284 46.2689 125.78L46.9667 128.157H50.7261L45.8048 114.043ZM43.6372 123.235C43.0249 123.235 42.4158 123.147 41.8284 122.974L43.6372 116.815L45.446 122.976C44.8584 123.148 44.2493 123.235 43.6372 123.235Z" fill="var(--fill-0, white)"/>
<path id="path153" d="M96.4336 114.043H92.0983L87.1765 128.157H90.9359L91.6337 125.78C93.3521 126.284 95.1793 126.284 96.8977 125.78L97.5955 128.157H101.355L96.4336 114.043ZM94.2646 123.235C93.6524 123.235 93.0433 123.147 92.4559 122.974L94.2646 116.815L96.0734 122.976C95.4859 123.148 94.8768 123.235 94.2646 123.235Z" fill="var(--fill-0, white)"/>
</g>
</svg>
