<svg preserveAspectRatio="xMidYMid meet" width="100%" height="100%" overflow="visible" style="display: block;" viewBox="0 0 131 56.899" fill="none" xmlns="http://www.w3.org/2000/svg">
<g id="Group 41">
<path id="Fill 1" fill-rule="evenodd" clip-rule="evenodd" d="M64.1769 1.32336L49.4124 26.6304C47.8805 29.2215 47.041 31.8637 46.8078 34.4042H41.0204C41.4143 31.2028 42.6395 28.1546 45.1805 23.7853L55.5134 6.09866C57.5765 2.59341 59.6337 1.32336 63.3646 1.32336H64.1769Z" fill="var(--fill-0, white)"/>
<path id="Fill 3" fill-rule="evenodd" clip-rule="evenodd" d="M68.9574 15.2171C61.286 15.2171 56.5707 19.7165 52.4083 29.5654C51.3671 32.0375 50.7726 35.104 54.3198 35.0653C56.3414 35.04 59.7142 33.9276 62.0929 32.2771C61.8988 33.0798 61.787 34.206 61.872 34.8772H67.2541C67.4412 32.7644 68.2481 30.1342 70.0197 26.9353L76.7479 15.636C74.1908 15.3583 71.5911 15.2171 68.9574 15.2171V15.2171ZM63.3675 28.2994C62.2586 29.3302 60.1179 30.8874 58.3081 30.9427C57.0637 30.8874 57.0165 29.7113 57.8536 28.0901C61.048 21.9274 64.4041 18.6685 68.5453 18.681H69.2974L63.3675 28.2994Z" fill="var(--fill-0, white)"/>
<path id="Fill 5" fill-rule="evenodd" clip-rule="evenodd" d="M123.21 15.2171C115.538 15.2171 110.823 19.7165 106.66 29.5654C105.619 32.0375 105.024 35.104 108.572 35.0653C110.594 35.04 113.966 33.9276 116.345 32.2771C116.151 33.0798 116.039 34.206 116.124 34.8772H121.506C121.693 32.7644 122.5 30.1342 124.272 26.9353L131 15.636C128.443 15.3583 125.843 15.2171 123.21 15.2171V15.2171ZM117.619 28.2994C116.51 29.3302 114.369 30.8874 112.56 30.9427C111.315 30.8874 111.268 29.7113 112.105 28.0901C115.3 21.9274 118.655 18.6685 122.797 18.681H123.549L117.619 28.2994Z" fill="var(--fill-0, white)"/>
<path id="Fill 7" fill-rule="evenodd" clip-rule="evenodd" d="M105.662 39.697H103.94C101.698 39.697 99.7354 38.1824 99.1409 35.9929L96.5201 25.9702L91.6246 34.3227H86.0098L101.686 7.40925C103.707 3.9169 105.816 2.64653 109.56 2.64653H110.133L99.72 20.4849L107.53 15.0275H113.798L100.671 24.2239L100.663 24.2282L105.662 39.697Z" fill="var(--fill-0, white)"/>
<path id="Fill 9" fill-rule="evenodd" clip-rule="evenodd" d="M54.0091 0.000331228C48.6472 0.000331228 45.8818 1.41335 40.6212 5.19664L22.826 17.9917H11.4402C8.14417 17.9917 5.51138 18.1225 3.42991 20.0771L0.486903 22.7902C0.486903 22.7902 9.05288 22.4589 17.0376 22.1539L0 34.404H7.364L24.7902 21.8594C28.166 21.7326 30.5145 21.6471 30.5324 21.6531C34.5951 21.5385 36.8479 17.9917 36.8479 17.9917H30.1634L44.2425 7.8574L33.793 24.7689C31.5547 28.6532 30.48 31.4276 30.1046 34.404H36.1534C36.3935 31.8817 37.2494 29.2587 38.8051 26.6858L53.0559 2.96218C54.046 1.33286 54.9141 0 54.9141 0L54.0091 0.000331228Z" fill="var(--fill-0, white)"/>
<path id="Fill 11" fill-rule="evenodd" clip-rule="evenodd" d="M81.8058 20.5715C81.7334 21.071 81.9391 21.3735 82.9429 22.0227L84.5432 23.0751C86.2771 24.2282 86.978 25.93 86.7726 27.3362C86.192 31.2471 83.3138 34.3998 77.2021 34.404C74.5257 34.404 73.3202 34.3189 70.1314 33.7868L72.5059 29.7875C74.7151 30.1706 75.9764 30.3721 77.6292 30.3682C79.9317 30.3682 80.8507 29.3298 80.9794 28.4792C81.0521 27.9755 80.8102 27.3932 79.7182 26.6388L78.4481 25.74C76.4126 24.2888 75.8799 23.1357 76.1466 21.3331C76.6581 17.8698 80.6655 15.2173 86.2282 15.2173C87.9739 15.2127 89.8885 15.3304 91.9647 15.5478L89.7313 19.3258C88.3651 19.2123 86.1399 19.1116 84.5715 19.1641C82.9631 19.2166 81.9228 19.7689 81.8058 20.5715" fill="var(--fill-0, white)"/>
<path id="Fill 13" fill-rule="evenodd" clip-rule="evenodd" d="M126.385 33.0143C126.548 33.0143 126.639 32.9355 126.639 32.8028C126.639 32.6634 126.548 32.5846 126.385 32.5846H126.197V33.0143H126.385ZM126.197 33.788H125.922V32.3481H126.425C126.707 32.3481 126.917 32.5452 126.917 32.7997C126.917 32.9999 126.787 33.165 126.599 33.2259L126.924 33.788H126.61L126.305 33.2509H126.197V33.788ZM126.363 34.1425C126.942 34.1425 127.399 33.6807 127.399 33.0789C127.399 32.4774 126.942 32.0187 126.363 32.0187C125.784 32.0187 125.327 32.4774 125.327 33.0789C125.327 33.6807 125.784 34.1425 126.363 34.1425V34.1425ZM126.363 31.7575C127.098 31.7575 127.691 32.3517 127.691 33.0788C127.691 33.806 127.098 34.404 126.363 34.404C125.632 34.404 125.045 33.806 125.045 33.0788C125.045 32.3517 125.632 31.7575 126.363 31.7575V31.7575Z" fill="var(--fill-0, white)"/>
<path id="Fill 15" fill-rule="evenodd" clip-rule="evenodd" d="M12.8109 52.5992H15.5821L14.1968 48.5979L12.8109 52.5992ZM16.2321 54.4799H12.1605L11.3266 56.899H9.26284L13.1078 46.3131H15.3695L19.1871 56.899H17.067L16.2321 54.4799Z" fill="var(--fill-0, white)"/>
<mask id="mask0_0_59" style="mask-type:luminance" maskUnits="userSpaceOnUse" x="0" y="0" width="131" height="57">
<path id="Clip 18" fill-rule="evenodd" clip-rule="evenodd" d="M0 56.899H131V0H0Z" fill="var(--fill-0, white)"/>
</mask>
<g mask="url(#mask0_0_59)">
<path id="Fill 17" fill-rule="evenodd" clip-rule="evenodd" d="M26.4645 56.899H28.4493V46.3131H26.4645V56.899Z" fill="var(--fill-0, white)"/>
<path id="Fill 19" fill-rule="evenodd" clip-rule="evenodd" d="M40.6745 51.0461C41.6854 51.0461 42.2775 50.4496 42.2775 49.5835C42.2775 48.6876 41.6854 48.1057 40.6745 48.1057H39.0576V51.0461H40.6745ZM40.0965 52.823H39.0576V56.899H37.0502V46.3131H41.0502C43.0425 46.3131 44.3138 47.7318 44.3138 49.5679C44.3138 51.0461 43.4762 52.166 42.1332 52.5688L44.328 56.899H42.1042L40.0965 52.823Z" fill="var(--fill-0, white)"/>
<path id="Fill 20" fill-rule="evenodd" clip-rule="evenodd" d="M52.9297 56.899V46.3131H54.9406V54.9283H59.5459V56.899H52.9297Z" fill="var(--fill-0, white)"/>
<path id="Fill 21" fill-rule="evenodd" clip-rule="evenodd" d="M67.4848 56.899H69.4697V46.3131H67.4848V56.899Z" fill="var(--fill-0, white)"/>
<path id="Fill 22" fill-rule="evenodd" clip-rule="evenodd" d="M84.6103 56.899L80.0323 49.3891V56.899H78.0709V46.3131H80.5161L84.7097 53.3162V46.3131H86.672V56.899H84.6103Z" fill="var(--fill-0, white)"/>
<path id="Fill 23" fill-rule="evenodd" clip-rule="evenodd" d="M95.2726 56.899V46.3131H101.889V48.2546H97.3289V50.6736H101.457V52.5097H97.3289V54.9579H101.889V56.899H95.2726Z" fill="var(--fill-0, white)"/>
<path id="Fill 24" fill-rule="evenodd" clip-rule="evenodd" d="M115.129 49.493C115.025 48.9347 114.553 48.0607 113.225 48.0607C112.237 48.0607 111.587 48.6771 111.587 49.3502C111.587 49.9082 111.956 50.353 112.723 50.4965L114.184 50.7681C116.088 51.1268 117.106 52.3299 117.106 53.7621C117.106 55.3232 115.763 56.899 113.328 56.899C110.554 56.899 109.329 55.166 109.167 53.7191L111.055 53.2319C111.144 54.2347 111.867 55.1373 113.344 55.1373C114.435 55.1373 115.04 54.6071 115.04 53.8909C115.04 53.3039 114.582 52.8454 113.771 52.6876L112.31 52.4009C110.643 52.0713 109.565 51.0257 109.565 49.493C109.565 47.6883 111.232 46.3131 113.211 46.3131C115.749 46.3131 116.722 47.8031 116.959 48.9487L115.129 49.493Z" fill="var(--fill-0, white)"/>
</g>
</g>
</svg>
