<svg preserveAspectRatio="xMidYMid meet" width="100%" height="100%" overflow="visible" style="display: block;" viewBox="0 0 141 39.3395" fill="none" xmlns="http://www.w3.org/2000/svg">
<g id="Vector">
<path d="M54.3977 34.7565V3.80178H60.0809V34.7565H54.3977Z" fill="white"/>
<path d="M108.907 13.7208H114.334V16.287C115.487 14.235 118.181 13.1225 120.488 13.1225C123.352 13.1225 125.659 14.363 126.727 16.6282C128.392 14.0619 130.617 13.1225 133.394 13.1225C137.282 13.1225 141 15.4743 141 21.1173V34.7565H135.488V22.2725C135.488 20.006 134.376 18.2964 131.769 18.2964C129.333 18.2964 127.879 20.1779 127.879 22.4444V34.7577H122.24V22.2725C122.24 20.006 121.086 18.2964 118.521 18.2964C116.042 18.2964 114.589 20.1352 114.589 22.4444V34.7577H108.907V13.7208Z" fill="white"/>
<path d="M72.9243 35.3659C66.522 35.3659 61.8856 30.6172 61.8856 24.2391C61.8856 17.9626 66.5069 13.101 72.9243 13.101C79.373 13.101 83.9629 18.0078 83.9629 24.2391C83.9629 30.5708 79.324 35.3659 72.9243 35.3659ZM72.9243 18.2499C69.6221 18.2499 66.9361 20.9366 66.9361 24.2404C66.9361 27.5442 69.6221 30.2309 72.9243 30.2309C76.2264 30.2309 78.9111 27.5442 78.9111 24.2404C78.9111 20.9366 76.2264 18.2499 72.9243 18.2499Z" fill="white"/>
<path d="M96.1025 35.3659C89.7002 35.3659 85.0639 30.6172 85.0639 24.2391C85.0639 17.9626 89.6852 13.101 96.1025 13.101C102.551 13.101 107.141 18.0078 107.141 24.2391C107.141 30.5708 102.5 35.3659 96.1025 35.3659ZM96.1025 18.1784C92.7627 18.1784 90.0454 20.8977 90.0454 24.2379C90.0454 27.578 92.7627 30.2973 96.1025 30.2973C99.4424 30.2973 102.16 27.578 102.16 24.2379C102.158 20.8977 99.4411 18.1784 96.1025 18.1784Z" fill="white"/>
<path d="M39.3395 17.4823H27.8361L37.7986 11.7304L35.6108 7.9399L25.6483 13.6917L31.3988 3.73L27.6083 1.54087L21.8577 11.5026V0H17.4818V11.5037L11.729 1.54087L7.93967 3.7289L13.6914 13.6906L3.7288 7.9399L1.54083 11.7293L11.5034 17.4812H0V21.8573H11.5023L1.54083 27.6091L3.7288 31.3997L13.6903 25.6489L7.93857 35.6106L11.729 37.7986L17.4807 27.8359V39.3395H21.8567V27.8369L27.6072 37.7986L31.3976 35.6106L25.646 25.6478L35.6085 31.3997L37.7965 27.6091L27.835 21.8583H39.3372V17.4823H39.3395ZM19.6698 25.6213C16.3702 25.6213 13.6958 22.9469 13.6958 19.6472C13.6958 16.3475 16.3702 13.673 19.6698 13.673C22.9693 13.673 25.6437 16.3475 25.6437 19.6472C25.6437 22.9469 22.9693 25.6213 19.6698 25.6213Z" fill="var(--fill-0, white)"/>
</g>
</svg>
